HIERARCHY
ROOT Hips
{
	OFFSET 0.000000 0.000000 0.000000
	CHANNELS 6 Xposition Yposition Zposition Zrotation Yrotation Xrotation 
	JOINT LeftUpLeg_virtual
	{
		OFFSET 0.000000 0.000000 0.000000
		CHANNELS 3 Zrotation Yrotation Xrotation
		JOINT LeftUpLeg
		{
			OFFSET 8.479694 -4.795517 -0.379053
			CHANNELS 3 Zrotation Yrotation Xrotation
			JOINT LeftLeg
			{
				OFFSET 0.485052 -32.551468 0.112863
				CHANNELS 3 Zrotation Yrotation Xrotation
				JOINT LeftFoot
				{
					OFFSET 0.438033 -32.635670 -3.012641
					CHANNELS 3 Zrotation Yrotation Xrotation
					JOINT LeftToeBase
					{
						OFFSET 0.970169 -13.225353 11.864223
						CHANNELS 3 Zrotation Yrotation Xrotation
						End Site
						{
							OFFSET 0.000000 0.000000 0.000000
						}
					}
				}
			}
		}
	}
	JOINT RightUpLeg_virtual
	{
		OFFSET 0.000000 0.000000 0.000000
		CHANNELS 3 Zrotation Yrotation Xrotation
		JOINT RightUpLeg
		{
			OFFSET -8.479694 -4.795517 -0.379053
			CHANNELS 3 Zrotation Yrotation Xrotation
			JOINT RightLeg
			{
				OFFSET -0.484100 -32.551483 0.112903
				CHANNELS 3 Zrotation Yrotation Xrotation
				JOINT RightFoot
				{
					OFFSET -0.438985 -32.635651 -3.012681
					CHANNELS 3 Zrotation Yrotation Xrotation
					JOINT RightToeBase
					{
						OFFSET -0.970169 -13.225354 11.864223
						CHANNELS 3 Zrotation Yrotation Xrotation
						End Site
						{
							OFFSET 0.000000 0.000000 0.000000
						}
					}
				}
			}
		}
	}
	JOINT Spine_virtual
	{
		OFFSET 0.000000 0.000000 0.000000
		CHANNELS 3 Zrotation Yrotation Xrotation
		JOINT Spine
		{
			OFFSET 0.000000 7.722015 1.166203
			CHANNELS 3 Zrotation Yrotation Xrotation
			JOINT Spine1
			{
				OFFSET 0.000000 12.024086 0.248766
				CHANNELS 3 Zrotation Yrotation Xrotation
				JOINT Spine2
				{
					OFFSET -0.000000 11.503036 -0.491240
					CHANNELS 3 Zrotation Yrotation Xrotation
					JOINT Neck_virtual
					{
						OFFSET 0.000000 0.000000 0.000000
						CHANNELS 3 Zrotation Yrotation Xrotation
						JOINT Neck
						{
							OFFSET 0.000000 18.430687 -3.123054
							CHANNELS 3 Zrotation Yrotation Xrotation
							JOINT Head
							{
								OFFSET -0.000000 9.051071 1.034021
								CHANNELS 3 Zrotation Yrotation Xrotation
								End Site
								{
									OFFSET 0.000000 0.000000 0.000000
								}
							}
						}
					}
					JOINT LeftShoulder_virtual
					{
						OFFSET 0.000000 0.000000 0.000000
						CHANNELS 3 Zrotation Yrotation Xrotation
						JOINT LeftShoulder
						{
							OFFSET 6.197824 13.665230 -4.064723
							CHANNELS 3 Zrotation Yrotation Xrotation
							JOINT LeftArm
							{
								OFFSET 7.778132 -0.187073 -1.709282
								CHANNELS 3 Zrotation Yrotation Xrotation
								JOINT LeftForeArm
								{
									OFFSET 21.954697 0.000000 -2.041093
									CHANNELS 3 Zrotation Yrotation Xrotation
									JOINT LeftHand
									{
										OFFSET 22.992908 0.000000 -0.870901
										CHANNELS 3 Zrotation Yrotation Xrotation
										End Site
										{
											OFFSET 0.000000 0.000000 0.000000
										}
									}
								}
							}
						}
					}
					JOINT RightShoulder_virtual
					{
						OFFSET 0.000000 0.000000 0.000000
						CHANNELS 3 Zrotation Yrotation Xrotation
						JOINT RightShoulder
						{
							OFFSET -6.197824 13.665230 -4.064723
							CHANNELS 3 Zrotation Yrotation Xrotation
							JOINT RightArm
							{
								OFFSET -7.778132 -0.187073 -1.709282
								CHANNELS 3 Zrotation Yrotation Xrotation
								JOINT RightForeArm
								{
									OFFSET -21.954697 0.000000 -2.041093
									CHANNELS 3 Zrotation Yrotation Xrotation
									JOINT RightHand
									{
										OFFSET -22.992908 0.000000 -0.870901
										CHANNELS 3 Zrotation Yrotation Xrotation
										End Site
										{
											OFFSET 0.000000 0.000000 0.000000
										}
									}
								}
							}
						}
					}
				}
			}
		}
	}
}
MOTION
Frames: 9
Frame Time: 0.033333
2.847522 81.463669 -12.606530 179.976509 2.163746 179.932209 -3.306906 -1.582165 10.525289 1.477061 -4.692874 -23.519676 5.897295 2.133149 28.344184 -3.157657 -8.476828 -8.731082 0.000000 0.000000 0.000000 -0.022608 -2.622654 10.545582 -4.201663 -1.427940 -23.241225 -0.853298 3.516144 31.893230 8.602745 3.820913 -10.756961 0.000000 0.000000 0.000000 3.289614 1.057404 -3.174315 -5.588968 3.043981 1.681400 -0.553765 -2.299435 3.773431 0.020745 0.056312 0.005579 -0.949279 -1.316338 3.762020 2.030781 -2.971825 -10.375250 0.000000 0.000000 0.000000 0.498545 -0.539494 1.214592 13.759511 0.220636 -3.720047 -6.388374 2.658014 -47.536402 -0.064105 -36.578166 -8.943279 0.000000 0.000000 0.000000 -3.217902 0.459951 0.609545 5.950930 -14.662968 -3.631003 11.961224 -10.620798 -46.775949 0.407683 30.819036 -4.000241 0.000000 0.000000 0.000000 
2.847839 81.477715 -12.663150 -179.998817 2.302767 179.946115 -3.205768 -1.658146 10.567685 1.563345 -4.957230 -23.511816 5.738118 1.953338 28.544682 -3.519967 -8.922477 -9.067026 0.000000 0.000000 0.000000 0.102726 -2.765995 10.414938 -3.944047 -2.148278 -23.296565 -0.924780 2.861631 32.540145 8.094140 3.250680 -10.969607 0.000000 0.000000 0.000000 3.308848 1.153900 -3.185325 -5.602577 3.131837 1.641486 -0.547606 -2.396022 3.755530 0.027109 -0.023651 -0.005743 -0.960140 -1.309113 3.765272 1.999577 -3.051784 -10.371736 0.000000 0.000000 0.000000 0.520840 -0.558392 1.111075 13.762070 0.248172 -3.737992 -6.539932 2.833995 -47.501312 -0.142637 -36.548373 -8.848945 0.000000 0.000000 0.000000 -3.199504 0.452748 0.678772 5.971030 -14.458761 -3.500555 11.954992 -10.643605 -46.769293 0.218175 30.827215 -4.241139 0.000000 0.000000 0.000000 
2.859389 81.483704 -12.731873 179.917811 2.230373 179.928124 -3.258463 -1.718929 10.580751 1.597305 -5.001030 -23.471948 5.628186 1.959137 28.579981 -3.470730 -8.841604 -9.097545 0.000000 0.000000 0.000000 0.009358 -2.836567 10.428014 -3.954070 -2.098496 -23.243772 -0.929080 2.893819 32.575382 8.021153 3.215753 -11.017913 0.000000 0.000000 0.000000 3.280319 1.074341 -3.178697 -5.646384 3.055432 1.626651 -0.572208 -2.303900 3.743415 -0.007309 0.057494 -0.024163 -0.889553 -1.250447 3.799079 2.017714 -3.076140 -10.333082 0.000000 0.000000 0.000000 0.578091 -0.539647 1.208784 13.738892 0.237186 -3.683226 -6.566875 2.782987 -47.422461 0.019990 -36.537154 -9.011700 0.000000 0.000000 0.000000 -3.157666 0.536505 0.632435 5.948162 -14.628879 -3.421073 12.042036 -10.650901 -46.834580 0.175638 30.825470 -4.303700 0.000000 0.000000 0.000000 
2.876870 81.487030 -12.794561 -179.944257 2.176633 179.867950 -3.126460 -1.694982 10.636247 1.599672 -5.050228 -23.389735 5.681018 1.974723 28.552783 -3.533172 -8.886021 -9.050399 0.000000 0.000000 0.000000 0.087575 -2.727446 10.485264 -3.900213 -2.068074 -23.115256 -0.944668 2.867462 32.506547 7.944961 3.179081 -11.050425 0.000000 0.000000 0.000000 3.341895 1.066829 -3.154628 -5.598622 3.074110 1.623114 -0.513646 -2.269997 3.749011 -0.003453 0.097587 -0.015092 -0.942840 -1.347969 3.776928 1.990417 -2.735561 -10.266912 0.000000 0.000000 0.000000 0.557923 -0.557296 1.199696 13.666784 0.194646 -3.748412 -6.448295 2.818356 -47.555820 -0.091131 -36.514936 -8.807655 0.000000 0.000000 0.000000 -3.205342 0.496443 0.565215 5.893355 -14.682846 -3.530744 12.098190 -10.789216 -47.014323 0.250118 30.820006 -4.273061 0.000000 0.000000 0.000000 
2.893842 81.488335 -12.850045 -179.944052 2.129845 179.937359 -3.131175 -1.735779 10.594784 1.649619 -4.955411 -23.398490 5.639532 2.012761 28.622490 -3.537987 -8.887360 -9.117905 0.000000 0.000000 0.000000 0.092718 -2.785691 10.454828 -3.896587 -2.059633 -23.100509 -0.935751 2.881294 32.503357 7.865267 3.154636 -11.077395 0.000000 0.000000 0.000000 3.364982 1.003940 -3.222045 -5.607539 3.015065 1.567095 -0.498787 -2.351315 3.731688 0.043304 0.016131 -0.001548 -0.948021 -1.322930 3.771005 2.029562 -2.957480 -10.182115 0.000000 0.000000 0.000000 0.521171 -0.448562 1.138222 13.709155 0.253236 -3.761656 -6.523435 2.835021 -47.191847 0.053112 -36.509492 -8.860761 0.000000 0.000000 0.000000 -3.196580 0.568133 0.655190 5.819859 -14.560652 -3.542093 12.184132 -10.752978 -47.434547 0.259492 30.798955 -4.331820 0.000000 0.000000 0.000000 
2.908347 81.487892 -12.891613 179.962248 2.083041 179.882840 -3.166632 -1.796139 10.613093 1.643809 -5.075583 -23.356424 5.553950 2.062695 28.638433 -3.478882 -8.817789 -9.123025 0.000000 0.000000 0.000000 0.035560 -2.811820 10.461220 -3.912770 -2.060004 -23.035423 -0.929279 2.902412 32.518213 7.804943 3.160282 -11.132600 0.000000 0.000000 0.000000 3.313897 0.991798 -3.184754 -5.628310 3.030653 1.624537 -0.523186 -2.338055 3.649241 0.013658 0.016110 -0.086225 -0.887736 -1.289908 3.864493 2.111350 -3.019032 -10.121603 0.000000 0.000000 0.000000 0.585988 -0.491278 1.219387 13.741011 0.174996 -3.763932 -6.488496 2.892152 -47.198352 -0.001207 -36.489340 -8.660421 0.000000 0.000000 0.000000 -3.128279 0.567974 0.749727 5.725806 -14.558599 -3.639177 12.336029 -10.848738 -47.687469 0.374953 30.896122 -4.215212 0.000000 0.000000 0.000000 
2.914620 81.484413 -12.933581 -179.968627 2.082371 179.963313 -3.190689 -1.786850 10.552379 1.724850 -4.998018 -23.385530 5.574454 2.039584 28.755141 -3.513199 -8.880869 -9.164524 0.000000 0.000000 0.000000 0.106722 -2.828443 10.382668 -3.915037 -2.089082 -23.037374 -0.921154 2.929438 32.604099 7.754355 3.179208 -11.161754 0.000000 0.000000 0.000000 3.339053 0.983673 -3.259111 -5.572607 3.041288 1.540412 -0.489900 -2.305236 3.704039 0.018393 0.041473 -0.033598 -0.908463 -1.297987 3.807570 2.179813 -2.975067 -10.063339 0.000000 0.000000 0.000000 0.537976 -0.505467 1.177930 13.721359 0.073660 -3.778095 -6.494525 2.916530 -47.178733 0.029785 -36.423684 -8.533480 0.000000 0.000000 0.000000 -3.180493 0.576489 0.658464 5.816170 -14.543249 -3.612330 12.337169 -11.007181 -47.835804 0.284172 31.063560 -4.330150 0.000000 0.000000 0.000000 
2.916270 81.478500 -12.978189 -179.996877 2.080107 179.986358 -3.253951 -1.829509 10.551136 1.785433 -5.055478 -23.365666 5.565451 2.036800 28.815486 -3.443283 -8.820686 -9.218424 0.000000 0.000000 0.000000 0.064572 -2.828131 10.358646 -3.907257 -2.100000 -23.008027 -0.902337 2.914449 32.649711 7.723444 3.218988 -11.175681 0.000000 0.000000 0.000000 3.314037 0.959081 -3.264689 -5.540464 3.029898 1.512066 -0.485777 -2.294067 3.693663 0.030727 0.037750 -0.045754 -0.891161 -1.281540 3.839023 2.254835 -2.960840 -9.905508 0.000000 0.000000 0.000000 0.551679 -0.482226 1.214281 13.633578 -0.011232 -3.739760 -6.498239 2.869536 -47.029356 0.253669 -36.383352 -8.598880 0.000000 0.000000 0.000000 -3.176063 0.575794 0.721203 5.861295 -14.522987 -3.627231 12.342148 -11.122654 -47.993960 0.282331 31.176774 -4.323580 0.000000 0.000000 0.000000 
2.909135 81.474228 -13.018763 179.971865 2.208524 179.874548 -3.327790 -1.718611 10.610216 1.807547 -5.053058 -23.301849 5.557026 2.023212 28.841440 -3.423160 -8.831150 -9.284442 0.000000 0.000000 0.000000 0.081956 -2.796974 10.397889 -3.972761 -2.116863 -22.933412 -0.937739 2.906977 32.666988 7.791116 3.339641 -11.182954 0.000000 0.000000 0.000000 3.263738 1.057056 -3.174271 -5.497391 3.150247 1.524699 -0.497483 -2.337294 3.727643 -0.016157 -0.025913 -0.018514 -0.844560 -1.172594 3.790327 2.301148 -3.224845 -9.715649 0.000000 0.000000 0.000000 0.611577 -0.411589 1.174234 13.594035 -0.068564 -3.869293 -6.653914 2.856894 -46.955239 0.293353 -36.456247 -8.397401 0.000000 0.000000 0.000000 -3.113590 0.613387 0.639174 6.070876 -14.415124 -3.598023 12.298785 -11.345225 -48.019187 0.199513 31.322182 -4.324029 0.000000 0.000000 0.000000 
